<svg width="45" height="66" viewBox="0 0 45 66" fill="none" xmlns="http://www.w3.org/2000/svg">
<path d="M38.8867 31.0525V42.0302C38.8867 42.0302 38.9921 44.7925 36.0508 44.7925C32.9701 44.7925 32.9139 42.0302 32.9139 42.0302V35.55C32.9139 35.3076 32.5766 33.6219 30.586 33.6219C27.9509 33.6219 27.9058 35.5177 27.9058 35.5177V54.9309C27.9058 54.9309 27.9349 56.8125 25.4323 56.8125C22.9157 56.8125 22.9157 54.8097 22.9157 54.8097V40.7263C22.9157 40.7263 22.9157 37.7518 19.0961 37.7518C15.0266 37.7518 15.1139 40.9081 15.1139 40.9081V44.6733C15.1139 44.6733 14.9925 47.6478 10.408 47.6478C5.82347 47.6478 5.76224 43.0937 5.76224 43.0937V30.5475C4.01156 29.5759 0.831421 27.2478 0.831421 27.2478V56.8731C0.831421 56.8731 3.83087 65.9601 22.9157 65.9601C42.0006 65.9601 45 57.1781 45 57.1781V27.2478C42.0507 30.1051 38.8867 31.0525 38.8867 31.0525Z" fill="white"/>
<path fill-rule="evenodd" clip-rule="evenodd" d="M22.9157 0.310059C2.52589 0.310059 0.831421 20.3838 0.831421 20.3838V23.4764C9.30175 29.7899 22.9157 29.6001 22.9157 29.6001C22.9157 29.6001 36.5297 29.7899 45 23.4774V20.3848C45 20.3838 43.3055 0.310059 22.9157 0.310059ZM22.9157 25.5601C11.1207 25.5601 8.54888 23.1613 8.54888 23.1613C14.8228 20.2576 22.9157 20.3838 22.9157 20.3838C22.9157 20.3838 31.0086 20.2576 37.2826 23.1613C37.2826 23.1613 34.7107 25.5601 22.9157 25.5601ZM5.15994 16.0287C5.15994 16.0287 13.3171 13.0613 22.9157 13.0613C32.5143 13.0613 40.6715 16.0277 40.6715 16.0277C36.091 2.9603 22.9157 3.40268 22.9157 3.40268C22.9157 3.40268 9.74042 2.96131 5.15994 16.0287Z" fill="white"/>
</svg>
